<?xml version="1.0" encoding="utf-8"?>
<!-- Generator: Adobe Illustrator 22.1.0, SVG Export Plug-In . SVG Version: 6.00 Build 0)  -->
<svg version="1.1" id="Laag_1" xmlns="http://www.w3.org/2000/svg" xmlns:xlink="http://www.w3.org/1999/xlink" x="0px" y="0px"
	 viewBox="0 0 644 96.4" style="enable-background:new 0 0 644 96.4;" xml:space="preserve">
<style type="text/css">
	.st0{fill:#FFFFFF;}
</style>
<g>
	<path class="st0" d="M19.6,5.9h4.6l34,75.1l34-75.1h4.5v80.7h-3.7V12.5L59.5,86.6h-2.8L23.1,12.5v74.1h-3.6V5.9z"/>
	<path class="st0" d="M115.6,70.6c0-11.5,7.5-17.8,24.6-17.8h19.6v-7.1c0-11.7-6.3-17.7-19.2-17.7c-12.1,0-18.7,5.2-19.7,15.1h-3.4
		c1.2-11.9,9.3-18.3,23.2-18.3c14.8,0,22.7,7.2,22.7,20.9v40.9h-3.1L160,75.3c-6.2,8.4-14.8,12.7-25,12.7
		C122.9,88,115.6,81.8,115.6,70.6z M159.8,70.7V56h-19.1c-15.3,0-21.5,4.5-21.5,14.4c0,9.6,5.8,14.6,16,14.6
		C145.3,84.9,153.7,80.2,159.8,70.7z"/>
	<path class="st0" d="M178.7,70.1l3.4-2.4c0,9.6,6.9,17.1,20.3,17.1c13.2,0,20-5.1,20-14c0-8.4-5.5-12.2-20.5-13.5
		c-15.8-1.4-21.7-5.8-21.7-15.4c0-10.8,8.2-17.1,22.3-17.1c14,0,21.8,6.2,21.8,17.4l-3.4,2.4c0-9.3-6.4-16.6-18.3-16.6
		c-12,0-19,5.1-19,13.6c0,7.7,5.2,11.1,19.6,12.5c16.5,1.5,22.7,6,22.7,16.5c0,11.2-8.2,17.4-23.4,17.4
		C187.2,88,178.7,81.7,178.7,70.1z"/>
	<path class="st0" d="M245.8,69.5V29.2h-12.2v-3h12.2l0.4-17h3.2v17h17.8v3h-17.8v40.1c0,10.4,3,14.1,11.3,14.1h7.4v3.2h-7.6
		C250.1,86.6,245.8,81.5,245.8,69.5z"/>
	<path class="st0" d="M278.6,62.4v-12c0-16.6,8.7-25.6,24.6-25.6c15.8,0,24.4,9,24.4,25.6v6.2h-45.4v5.3c0,15.3,7.2,22.9,21.4,22.9
		c12.2,0,19.3-5.7,20.2-15.5h3.4c-0.9,12-9.5,18.7-23.5,18.7C287.5,88,278.6,79,278.6,62.4z M324,53.4v-2.5c0-15.3-6.9-22.9-21-22.9
		c-14,0-20.9,7.6-20.9,22.9v2.5H324z"/>
	<path class="st0" d="M346.6,26.2h3.1l0.2,13.4c3.7-9.8,10.2-14.5,19.8-14.5h3.8v3.2h-3.4c-10.6,0-16.8,5.9-19.9,20v38.2h-3.6V26.2z
		"/>
	<path class="st0" d="M386.4,26.2h3.1l0.2,13c4.7-9.6,11.9-14.5,21.5-14.5c9.8,0,16,5.1,17.7,14.8c4.7-9.7,11.9-14.8,21.8-14.8
		c11.6,0,18,7.1,18,20.4v41.4h-3.6V45.7c0-11.6-5-17.7-14.8-17.7c-9.8,0-16.1,5.9-21,17.1v41.5h-3.6V45.7c0-11.7-5.1-17.7-14.8-17.7
		c-9.7,0-16.3,5.8-21,17.1v41.5h-3.6V26.2z"/>
	<path class="st0" d="M490.1,4h4.3v8.3h-4.3V4z M490.4,26.2h3.6v60.4h-3.6V26.2z"/>
	<path class="st0" d="M516.5,26.2h3.1l0.2,13.9c5-10.1,12.8-15.3,23-15.3c12.3,0,18.7,7.6,18.7,21.6v40.2H558V46.9
		c0-12.5-4.9-18.9-15.5-18.9c-9.6,0-17.2,5.2-22.4,17.9v40.7h-3.6V26.2z"/>
	<path class="st0" d="M580,63.5V49.3c0-15.5,8.2-24.6,21.7-24.6c10.6,0,19,5.5,24.6,15.3V0h3.6v86.6h-3.1l-0.2-14.4
		C620.9,82.4,612.4,88,601.7,88C588.2,88,580,79,580,63.5z M626.2,66.4v-20C620.8,34.3,612.6,28,601.8,28
		c-11.9,0-18.3,7.6-18.3,21.8V63c0,14.2,6.4,21.8,18.3,21.8C612.6,84.8,620.8,78.5,626.2,66.4z"/>
</g>
</svg>
